<svg version="1.1" xmlns="http://www.w3.org/2000/svg" xmlns:xlink="http://www.w3.org/1999/xlink" width="406.919921875" height="328"><defs/><g><text fill="#eeeeee" stroke="none" font-family="Arial" font-size="24px" font-style="normal" font-weight="normal" text-decoration="none" x="0" y="0">UNREGISTERED</text><text fill="#eeeeee" stroke="none" font-family="Arial" font-size="24px" font-style="normal" font-weight="normal" text-decoration="none" x="0" y="30">UNREGISTERED</text><text fill="#eeeeee" stroke="none" font-family="Arial" font-size="24px" font-style="normal" font-weight="normal" text-decoration="none" x="0" y="60">UNREGISTERED</text><text fill="#eeeeee" stroke="none" font-family="Arial" font-size="24px" font-style="normal" font-weight="normal" text-decoration="none" x="0" y="90">UNREGISTERED</text><text fill="#eeeeee" stroke="none" font-family="Arial" font-size="24px" font-style="normal" font-weight="normal" text-decoration="none" x="0" y="120">UNREGISTERED</text><text fill="#eeeeee" stroke="none" font-family="Arial" font-size="24px" font-style="normal" font-weight="normal" text-decoration="none" x="0" y="150">UNREGISTERED</text><text fill="#eeeeee" stroke="none" font-family="Arial" font-size="24px" font-style="normal" font-weight="normal" text-decoration="none" x="0" y="180">UNREGISTERED</text><text fill="#eeeeee" stroke="none" font-family="Arial" font-size="24px" font-style="normal" font-weight="normal" text-decoration="none" x="0" y="210">UNREGISTERED</text><text fill="#eeeeee" stroke="none" font-family="Arial" font-size="24px" font-style="normal" font-weight="normal" text-decoration="none" x="0" y="240">UNREGISTERED</text><text fill="#eeeeee" stroke="none" font-family="Arial" font-size="24px" font-style="normal" font-weight="normal" text-decoration="none" x="0" y="270">UNREGISTERED</text><text fill="#eeeeee" stroke="none" font-family="Arial" font-size="24px" font-style="normal" font-weight="normal" text-decoration="none" x="0" y="300">UNREGISTERED</text><text fill="#eeeeee" stroke="none" font-family="Arial" font-size="24px" font-style="normal" font-weight="normal" text-decoration="none" x="200" y="0">UNREGISTERED</text><text fill="#eeeeee" stroke="none" font-family="Arial" font-size="24px" font-style="normal" font-weight="normal" text-decoration="none" x="200" y="30">UNREGISTERED</text><text fill="#eeeeee" stroke="none" font-family="Arial" font-size="24px" font-style="normal" font-weight="normal" text-decoration="none" x="200" y="60">UNREGISTERED</text><text fill="#eeeeee" stroke="none" font-family="Arial" font-size="24px" font-style="normal" font-weight="normal" text-decoration="none" x="200" y="90">UNREGISTERED</text><text fill="#eeeeee" stroke="none" font-family="Arial" font-size="24px" font-style="normal" font-weight="normal" text-decoration="none" x="200" y="120">UNREGISTERED</text><text fill="#eeeeee" stroke="none" font-family="Arial" font-size="24px" font-style="normal" font-weight="normal" text-decoration="none" x="200" y="150">UNREGISTERED</text><text fill="#eeeeee" stroke="none" font-family="Arial" font-size="24px" font-style="normal" font-weight="normal" text-decoration="none" x="200" y="180">UNREGISTERED</text><text fill="#eeeeee" stroke="none" font-family="Arial" font-size="24px" font-style="normal" font-weight="normal" text-decoration="none" x="200" y="210">UNREGISTERED</text><text fill="#eeeeee" stroke="none" font-family="Arial" font-size="24px" font-style="normal" font-weight="normal" text-decoration="none" x="200" y="240">UNREGISTERED</text><text fill="#eeeeee" stroke="none" font-family="Arial" font-size="24px" font-style="normal" font-weight="normal" text-decoration="none" x="200" y="270">UNREGISTERED</text><text fill="#eeeeee" stroke="none" font-family="Arial" font-size="24px" font-style="normal" font-weight="normal" text-decoration="none" x="200" y="300">UNREGISTERED</text><text fill="#eeeeee" stroke="none" font-family="Arial" font-size="24px" font-style="normal" font-weight="normal" text-decoration="none" x="400" y="0">UNREGISTERED</text><text fill="#eeeeee" stroke="none" font-family="Arial" font-size="24px" font-style="normal" font-weight="normal" text-decoration="none" x="400" y="30">UNREGISTERED</text><text fill="#eeeeee" stroke="none" font-family="Arial" font-size="24px" font-style="normal" font-weight="normal" text-decoration="none" x="400" y="60">UNREGISTERED</text><text fill="#eeeeee" stroke="none" font-family="Arial" font-size="24px" font-style="normal" font-weight="normal" text-decoration="none" x="400" y="90">UNREGISTERED</text><text fill="#eeeeee" stroke="none" font-family="Arial" font-size="24px" font-style="normal" font-weight="normal" text-decoration="none" x="400" y="120">UNREGISTERED</text><text fill="#eeeeee" stroke="none" font-family="Arial" font-size="24px" font-style="normal" font-weight="normal" text-decoration="none" x="400" y="150">UNREGISTERED</text><text fill="#eeeeee" stroke="none" font-family="Arial" font-size="24px" font-style="normal" font-weight="normal" text-decoration="none" x="400" y="180">UNREGISTERED</text><text fill="#eeeeee" stroke="none" font-family="Arial" font-size="24px" font-style="normal" font-weight="normal" text-decoration="none" x="400" y="210">UNREGISTERED</text><text fill="#eeeeee" stroke="none" font-family="Arial" font-size="24px" font-style="normal" font-weight="normal" text-decoration="none" x="400" y="240">UNREGISTERED</text><text fill="#eeeeee" stroke="none" font-family="Arial" font-size="24px" font-style="normal" font-weight="normal" text-decoration="none" x="400" y="270">UNREGISTERED</text><text fill="#eeeeee" stroke="none" font-family="Arial" font-size="24px" font-style="normal" font-weight="normal" text-decoration="none" x="400" y="300">UNREGISTERED</text><g transform="translate(-198,-270) scale(1,1)"><rect fill="#C0C0C0" stroke="none" x="367" y="287" width="90.63720703125" height="44" opacity="0.2"/></g><g transform="translate(-198,-270) scale(1,1)"><rect fill="#f6ec9f" stroke="none" x="360" y="280" width="90.63720703125" height="44"/></g><g transform="translate(-198,-270) scale(1,1)"><path fill="none" stroke="#450f0f" d="M 360 280 L 450.63720703125 280 L 450.63720703125 324 L 360 324 L 360 280 Z Z" stroke-miterlimit="10"/></g><g transform="translate(-198,-270) scale(1,1)"><path fill="none" stroke="#450f0f" d="M 360 305 L 450.63720703125 305" stroke-miterlimit="10"/></g><g transform="translate(-198,-270) scale(1,1)"><g><path fill="none" stroke="none"/><text fill="#000000" stroke="none" font-family="Arial" font-size="13px" font-style="normal" font-weight="bold" text-decoration="none" x="364.5" y="298">SimpleShape</text></g></g><g transform="translate(-198,-270) scale(1,1)"><rect fill="#C0C0C0" stroke="none" x="351" y="423" width="100.7490234375" height="44" opacity="0.2"/></g><g transform="translate(-198,-270) scale(1,1)"><rect fill="#f6ec9f" stroke="none" x="344" y="416" width="100.7490234375" height="44"/></g><g transform="translate(-198,-270) scale(1,1)"><path fill="none" stroke="#450f0f" d="M 344 416 L 444.7490234375 416 L 444.7490234375 460 L 344 460 L 344 416 Z Z" stroke-miterlimit="10"/></g><g transform="translate(-198,-270) scale(1,1)"><path fill="none" stroke="#450f0f" d="M 344 441 L 444.7490234375 441" stroke-miterlimit="10"/></g><g transform="translate(-198,-270) scale(1,1)"><g><path fill="none" stroke="none"/><text fill="#000000" stroke="none" font-family="Arial" font-size="13px" font-style="normal" font-weight="bold" text-decoration="none" x="348.5" y="434">AbstractShape</text></g></g><g transform="translate(-198,-270) scale(1,1)"><rect fill="#C0C0C0" stroke="none" x="303" y="551" width="50.919921875" height="44" opacity="0.2"/></g><g transform="translate(-198,-270) scale(1,1)"><rect fill="#f6ec9f" stroke="none" x="296" y="544" width="50.919921875" height="44"/></g><g transform="translate(-198,-270) scale(1,1)"><path fill="none" stroke="#450f0f" d="M 296 544 L 346.919921875 544 L 346.919921875 588 L 296 588 L 296 544 Z Z" stroke-miterlimit="10"/></g><g transform="translate(-198,-270) scale(1,1)"><path fill="none" stroke="#450f0f" d="M 296 569 L 346.919921875 569" stroke-miterlimit="10"/></g><g transform="translate(-198,-270) scale(1,1)"><g><path fill="none" stroke="none"/><text fill="#000000" stroke="none" font-family="Arial" font-size="13px" font-style="normal" font-weight="bold" text-decoration="none" x="303.39453125" y="562">Circle</text></g></g><g transform="translate(-198,-270) scale(1,1)"><path fill="none" stroke="#000000" d="M 334 543 L 381 461" stroke-miterlimit="10"/></g><g transform="translate(-198,-270) scale(1,1)"><path fill="#FFFFFF" stroke="none" d="M 378.1969339426798 482.82069707131967 L 381 461 L 363.58837011340745 474.44749585210263"/></g><g transform="translate(-198,-270) scale(1,1)"><path fill="none" stroke="#000000" d="M 378.1969339426798 482.82069707131967 L 381 461 L 363.58837011340745 474.44749585210263 L 378.1969339426798 482.82069707131967" stroke-miterlimit="10"/></g><g transform="translate(-198,-270) scale(1,1)"><path fill="none" stroke="#000000" d="M 396 415 L 403 325" stroke-miterlimit="10"/></g><g transform="translate(-198,-270) scale(1,1)"><path fill="#FFFFFF" stroke="none" d="M 409.8175849804941 345.9169915387883 L 403 325 L 393.03021401192404 344.61130713012176"/></g><g transform="translate(-198,-270) scale(1,1)"><path fill="none" stroke="#000000" d="M 409.8175849804941 345.9169915387883 L 403 325 L 393.03021401192404 344.61130713012176 L 409.8175849804941 345.9169915387883" stroke-miterlimit="10"/></g><g transform="translate(-198,-270) scale(1,1)"><rect fill="#C0C0C0" stroke="none" x="215" y="543" width="58.84814453125" height="44" opacity="0.2"/></g><g transform="translate(-198,-270) scale(1,1)"><rect fill="#f6ec9f" stroke="none" x="208" y="536" width="58.84814453125" height="44"/></g><g transform="translate(-198,-270) scale(1,1)"><path fill="none" stroke="#450f0f" d="M 208 536 L 266.84814453125 536 L 266.84814453125 580 L 208 580 L 208 536 Z Z" stroke-miterlimit="10"/></g><g transform="translate(-198,-270) scale(1,1)"><path fill="none" stroke="#450f0f" d="M 208 561 L 266.84814453125 561" stroke-miterlimit="10"/></g><g transform="translate(-198,-270) scale(1,1)"><g><path fill="none" stroke="none"/><text fill="#000000" stroke="none" font-family="Arial" font-size="13px" font-style="normal" font-weight="bold" text-decoration="none" x="212.5" y="554">Triangle</text></g></g><g transform="translate(-198,-270) scale(1,1)"><rect fill="#C0C0C0" stroke="none" x="375" y="551" width="53.07177734375" height="44" opacity="0.2"/></g><g transform="translate(-198,-270) scale(1,1)"><rect fill="#f6ec9f" stroke="none" x="368" y="544" width="53.07177734375" height="44"/></g><g transform="translate(-198,-270) scale(1,1)"><path fill="none" stroke="#450f0f" d="M 368 544 L 421.07177734375 544 L 421.07177734375 588 L 368 588 L 368 544 Z Z" stroke-miterlimit="10"/></g><g transform="translate(-198,-270) scale(1,1)"><path fill="none" stroke="#450f0f" d="M 368 569 L 421.07177734375 569" stroke-miterlimit="10"/></g><g transform="translate(-198,-270) scale(1,1)"><g><path fill="none" stroke="none"/><text fill="#000000" stroke="none" font-family="Arial" font-size="13px" font-style="normal" font-weight="bold" text-decoration="none" x="372.5" y="562">Square</text></g></g><g transform="translate(-198,-270) scale(1,1)"><path fill="none" stroke="#000000" d="M 267 535 L 364 461" stroke-miterlimit="10"/></g><g transform="translate(-198,-270) scale(1,1)"><path fill="#FFFFFF" stroke="none" d="M 352.9466803708254 480.0216751411463 L 364 461 L 342.7337672537561 466.6344782174204"/></g><g transform="translate(-198,-270) scale(1,1)"><path fill="none" stroke="#000000" d="M 352.9466803708254 480.0216751411463 L 364 461 L 342.7337672537561 466.6344782174204 L 352.9466803708254 480.0216751411463" stroke-miterlimit="10"/></g><g transform="translate(-198,-270) scale(1,1)"><path fill="none" stroke="#000000" d="M 394 543 L 394 461" stroke-miterlimit="10"/></g><g transform="translate(-198,-270) scale(1,1)"><path fill="#FFFFFF" stroke="none" d="M 402.419035512032 481.3253497152483 L 394 461 L 385.580964487968 481.3253497152483"/></g><g transform="translate(-198,-270) scale(1,1)"><path fill="none" stroke="#000000" d="M 402.419035512032 481.3253497152483 L 394 461 L 385.580964487968 481.3253497152483 L 402.419035512032 481.3253497152483" stroke-miterlimit="10"/></g><g transform="translate(-198,-270) scale(1,1)"><rect fill="#C0C0C0" stroke="none" x="551" y="551" width="50.919921875" height="44" opacity="0.2"/></g><g transform="translate(-198,-270) scale(1,1)"><rect fill="#f6ec9f" stroke="none" x="544" y="544" width="50.919921875" height="44"/></g><g transform="translate(-198,-270) scale(1,1)"><path fill="none" stroke="#450f0f" d="M 544 544 L 594.919921875 544 L 594.919921875 588 L 544 588 L 544 544 Z Z" stroke-miterlimit="10"/></g><g transform="translate(-198,-270) scale(1,1)"><path fill="none" stroke="#450f0f" d="M 544 569 L 594.919921875 569" stroke-miterlimit="10"/></g><g transform="translate(-198,-270) scale(1,1)"><g><path fill="none" stroke="none"/><text fill="#000000" stroke="none" font-family="Arial" font-size="13px" font-style="normal" font-weight="bold" text-decoration="none" x="549.963134765625" y="562">Group</text></g></g><g transform="translate(-198,-270) scale(1,1)"><path fill="none" stroke="#000000" d="M 543 547 L 425 461" stroke-miterlimit="10"/></g><g transform="translate(-198,-270) scale(1,1)"><path fill="#FFFFFF" stroke="none" d="M 446.38448901349136 466.1675554793216 L 425 461 L 436.467103672063 479.775130715235"/></g><g transform="translate(-198,-270) scale(1,1)"><path fill="none" stroke="#000000" d="M 446.38448901349136 466.1675554793216 L 425 461 L 436.467103672063 479.775130715235 L 446.38448901349136 466.1675554793216" stroke-miterlimit="10"/></g><g transform="translate(-198,-270) scale(1,1)"><path fill="none" stroke="#000000" d="M 439 325 L 560 408 L 568 543" stroke-miterlimit="10"/></g><g transform="translate(-198,-270) scale(1,1)"><path fill="#000000" stroke="none" d="M 563.1966760883865 533.1041382689468 L 568 543 L 571.6009680255747 532.6061061541506 L 566.6985793669761 521.0385268177215"/></g><g transform="translate(-198,-270) scale(1,1)"><path fill="none" stroke="#000000" d="M 563.1966760883865 533.1041382689468 L 568 543 L 571.6009680255747 532.6061061541506 L 566.6985793669761 521.0385268177215 L 563.1966760883865 533.1041382689468" stroke-miterlimit="10"/></g></g></svg>