<svg version="1.1" xmlns="http://www.w3.org/2000/svg" xmlns:xlink="http://www.w3.org/1999/xlink" width="582.919921875" height="424"><defs/><g><text fill="#eeeeee" stroke="none" font-family="Arial" font-size="24px" font-style="normal" font-weight="normal" text-decoration="none" x="0" y="0">UNREGISTERED</text><text fill="#eeeeee" stroke="none" font-family="Arial" font-size="24px" font-style="normal" font-weight="normal" text-decoration="none" x="0" y="30">UNREGISTERED</text><text fill="#eeeeee" stroke="none" font-family="Arial" font-size="24px" font-style="normal" font-weight="normal" text-decoration="none" x="0" y="60">UNREGISTERED</text><text fill="#eeeeee" stroke="none" font-family="Arial" font-size="24px" font-style="normal" font-weight="normal" text-decoration="none" x="0" y="90">UNREGISTERED</text><text fill="#eeeeee" stroke="none" font-family="Arial" font-size="24px" font-style="normal" font-weight="normal" text-decoration="none" x="0" y="120">UNREGISTERED</text><text fill="#eeeeee" stroke="none" font-family="Arial" font-size="24px" font-style="normal" font-weight="normal" text-decoration="none" x="0" y="150">UNREGISTERED</text><text fill="#eeeeee" stroke="none" font-family="Arial" font-size="24px" font-style="normal" font-weight="normal" text-decoration="none" x="0" y="180">UNREGISTERED</text><text fill="#eeeeee" stroke="none" font-family="Arial" font-size="24px" font-style="normal" font-weight="normal" text-decoration="none" x="0" y="210">UNREGISTERED</text><text fill="#eeeeee" stroke="none" font-family="Arial" font-size="24px" font-style="normal" font-weight="normal" text-decoration="none" x="0" y="240">UNREGISTERED</text><text fill="#eeeeee" stroke="none" font-family="Arial" font-size="24px" font-style="normal" font-weight="normal" text-decoration="none" x="0" y="270">UNREGISTERED</text><text fill="#eeeeee" stroke="none" font-family="Arial" font-size="24px" font-style="normal" font-weight="normal" text-decoration="none" x="0" y="300">UNREGISTERED</text><text fill="#eeeeee" stroke="none" font-family="Arial" font-size="24px" font-style="normal" font-weight="normal" text-decoration="none" x="0" y="330">UNREGISTERED</text><text fill="#eeeeee" stroke="none" font-family="Arial" font-size="24px" font-style="normal" font-weight="normal" text-decoration="none" x="0" y="360">UNREGISTERED</text><text fill="#eeeeee" stroke="none" font-family="Arial" font-size="24px" font-style="normal" font-weight="normal" text-decoration="none" x="0" y="390">UNREGISTERED</text><text fill="#eeeeee" stroke="none" font-family="Arial" font-size="24px" font-style="normal" font-weight="normal" text-decoration="none" x="0" y="420">UNREGISTERED</text><text fill="#eeeeee" stroke="none" font-family="Arial" font-size="24px" font-style="normal" font-weight="normal" text-decoration="none" x="200" y="0">UNREGISTERED</text><text fill="#eeeeee" stroke="none" font-family="Arial" font-size="24px" font-style="normal" font-weight="normal" text-decoration="none" x="200" y="30">UNREGISTERED</text><text fill="#eeeeee" stroke="none" font-family="Arial" font-size="24px" font-style="normal" font-weight="normal" text-decoration="none" x="200" y="60">UNREGISTERED</text><text fill="#eeeeee" stroke="none" font-family="Arial" font-size="24px" font-style="normal" font-weight="normal" text-decoration="none" x="200" y="90">UNREGISTERED</text><text fill="#eeeeee" stroke="none" font-family="Arial" font-size="24px" font-style="normal" font-weight="normal" text-decoration="none" x="200" y="120">UNREGISTERED</text><text fill="#eeeeee" stroke="none" font-family="Arial" font-size="24px" font-style="normal" font-weight="normal" text-decoration="none" x="200" y="150">UNREGISTERED</text><text fill="#eeeeee" stroke="none" font-family="Arial" font-size="24px" font-style="normal" font-weight="normal" text-decoration="none" x="200" y="180">UNREGISTERED</text><text fill="#eeeeee" stroke="none" font-family="Arial" font-size="24px" font-style="normal" font-weight="normal" text-decoration="none" x="200" y="210">UNREGISTERED</text><text fill="#eeeeee" stroke="none" font-family="Arial" font-size="24px" font-style="normal" font-weight="normal" text-decoration="none" x="200" y="240">UNREGISTERED</text><text fill="#eeeeee" stroke="none" font-family="Arial" font-size="24px" font-style="normal" font-weight="normal" text-decoration="none" x="200" y="270">UNREGISTERED</text><text fill="#eeeeee" stroke="none" font-family="Arial" font-size="24px" font-style="normal" font-weight="normal" text-decoration="none" x="200" y="300">UNREGISTERED</text><text fill="#eeeeee" stroke="none" font-family="Arial" font-size="24px" font-style="normal" font-weight="normal" text-decoration="none" x="200" y="330">UNREGISTERED</text><text fill="#eeeeee" stroke="none" font-family="Arial" font-size="24px" font-style="normal" font-weight="normal" text-decoration="none" x="200" y="360">UNREGISTERED</text><text fill="#eeeeee" stroke="none" font-family="Arial" font-size="24px" font-style="normal" font-weight="normal" text-decoration="none" x="200" y="390">UNREGISTERED</text><text fill="#eeeeee" stroke="none" font-family="Arial" font-size="24px" font-style="normal" font-weight="normal" text-decoration="none" x="200" y="420">UNREGISTERED</text><text fill="#eeeeee" stroke="none" font-family="Arial" font-size="24px" font-style="normal" font-weight="normal" text-decoration="none" x="400" y="0">UNREGISTERED</text><text fill="#eeeeee" stroke="none" font-family="Arial" font-size="24px" font-style="normal" font-weight="normal" text-decoration="none" x="400" y="30">UNREGISTERED</text><text fill="#eeeeee" stroke="none" font-family="Arial" font-size="24px" font-style="normal" font-weight="normal" text-decoration="none" x="400" y="60">UNREGISTERED</text><text fill="#eeeeee" stroke="none" font-family="Arial" font-size="24px" font-style="normal" font-weight="normal" text-decoration="none" x="400" y="90">UNREGISTERED</text><text fill="#eeeeee" stroke="none" font-family="Arial" font-size="24px" font-style="normal" font-weight="normal" text-decoration="none" x="400" y="120">UNREGISTERED</text><text fill="#eeeeee" stroke="none" font-family="Arial" font-size="24px" font-style="normal" font-weight="normal" text-decoration="none" x="400" y="150">UNREGISTERED</text><text fill="#eeeeee" stroke="none" font-family="Arial" font-size="24px" font-style="normal" font-weight="normal" text-decoration="none" x="400" y="180">UNREGISTERED</text><text fill="#eeeeee" stroke="none" font-family="Arial" font-size="24px" font-style="normal" font-weight="normal" text-decoration="none" x="400" y="210">UNREGISTERED</text><text fill="#eeeeee" stroke="none" font-family="Arial" font-size="24px" font-style="normal" font-weight="normal" text-decoration="none" x="400" y="240">UNREGISTERED</text><text fill="#eeeeee" stroke="none" font-family="Arial" font-size="24px" font-style="normal" font-weight="normal" text-decoration="none" x="400" y="270">UNREGISTERED</text><text fill="#eeeeee" stroke="none" font-family="Arial" font-size="24px" font-style="normal" font-weight="normal" text-decoration="none" x="400" y="300">UNREGISTERED</text><text fill="#eeeeee" stroke="none" font-family="Arial" font-size="24px" font-style="normal" font-weight="normal" text-decoration="none" x="400" y="330">UNREGISTERED</text><text fill="#eeeeee" stroke="none" font-family="Arial" font-size="24px" font-style="normal" font-weight="normal" text-decoration="none" x="400" y="360">UNREGISTERED</text><text fill="#eeeeee" stroke="none" font-family="Arial" font-size="24px" font-style="normal" font-weight="normal" text-decoration="none" x="400" y="390">UNREGISTERED</text><text fill="#eeeeee" stroke="none" font-family="Arial" font-size="24px" font-style="normal" font-weight="normal" text-decoration="none" x="400" y="420">UNREGISTERED</text><g transform="translate(-78,-22) scale(1,1)"><rect fill="#C0C0C0" stroke="none" x="191" y="135" width="50.919921875" height="44" opacity="0.2"/></g><g transform="translate(-78,-22) scale(1,1)"><rect fill="#f6ec9f" stroke="none" x="184" y="128" width="50.919921875" height="44"/></g><g transform="translate(-78,-22) scale(1,1)"><path fill="none" stroke="#450f0f" d="M 184 128 L 234.919921875 128 L 234.919921875 172 L 184 172 L 184 128 Z Z" stroke-miterlimit="10"/></g><g transform="translate(-78,-22) scale(1,1)"><path fill="none" stroke="#450f0f" d="M 184 153 L 234.919921875 153" stroke-miterlimit="10"/></g><g transform="translate(-78,-22) scale(1,1)"><g><path fill="none" stroke="none"/><text fill="#000000" stroke="none" font-family="Arial" font-size="13px" font-style="normal" font-weight="bold" text-decoration="none" x="189.3505859375" y="146">Visitor</text></g></g><g transform="translate(-78,-22) scale(1,1)"><rect fill="#C0C0C0" stroke="none" x="479" y="39" width="62.2314453125" height="44" opacity="0.2"/></g><g transform="translate(-78,-22) scale(1,1)"><rect fill="#f6ec9f" stroke="none" x="472" y="32" width="62.2314453125" height="44"/></g><g transform="translate(-78,-22) scale(1,1)"><path fill="none" stroke="#450f0f" d="M 472 32 L 534.2314453125 32 L 534.2314453125 76 L 472 76 L 472 32 Z Z" stroke-miterlimit="10"/></g><g transform="translate(-78,-22) scale(1,1)"><path fill="none" stroke="#450f0f" d="M 472 57 L 534.2314453125 57" stroke-miterlimit="10"/></g><g transform="translate(-78,-22) scale(1,1)"><g><path fill="none" stroke="none"/><text fill="#000000" stroke="none" font-family="Arial" font-size="13px" font-style="normal" font-weight="bold" text-decoration="none" x="476.5" y="50">Visitable</text></g></g><g transform="translate(-78,-22) scale(1,1)"><rect fill="#C0C0C0" stroke="none" x="271" y="303" width="81.00146484375" height="44" opacity="0.2"/></g><g transform="translate(-78,-22) scale(1,1)"><rect fill="#f6ec9f" stroke="none" x="264" y="296" width="81.00146484375" height="44"/></g><g transform="translate(-78,-22) scale(1,1)"><path fill="none" stroke="#450f0f" d="M 264 296 L 345.00146484375 296 L 345.00146484375 340 L 264 340 L 264 296 Z Z" stroke-miterlimit="10"/></g><g transform="translate(-78,-22) scale(1,1)"><path fill="none" stroke="#450f0f" d="M 264 321 L 345.00146484375 321" stroke-miterlimit="10"/></g><g transform="translate(-78,-22) scale(1,1)"><g><path fill="none" stroke="none"/><text fill="#000000" stroke="none" font-family="Arial" font-size="13px" font-style="normal" font-weight="bold" text-decoration="none" x="268.5" y="314">JSonVisitor</text></g></g><g transform="translate(-78,-22) scale(1,1)"><path fill="none" stroke="#000000" d="M 291 295 L 222 173" stroke-miterlimit="10"/></g><g transform="translate(-78,-22) scale(1,1)"><path fill="#FFFFFF" stroke="none" d="M 239.33419433820092 186.54716600051404 L 222 173 L 224.677833418124 194.83641930777063"/></g><g transform="translate(-78,-22) scale(1,1)"><path fill="none" stroke="#000000" d="M 239.33419433820092 186.54716600051404 L 222 173 L 224.677833418124 194.83641930777063 L 239.33419433820092 186.54716600051404" stroke-miterlimit="10"/></g><g transform="translate(-78,-22) scale(1,1)"><rect fill="#C0C0C0" stroke="none" x="95" y="295" width="75.69482421875" height="44" opacity="0.2"/></g><g transform="translate(-78,-22) scale(1,1)"><rect fill="#f6ec9f" stroke="none" x="88" y="288" width="75.69482421875" height="44"/></g><g transform="translate(-78,-22) scale(1,1)"><path fill="none" stroke="#450f0f" d="M 88 288 L 163.69482421875 288 L 163.69482421875 332 L 88 332 L 88 288 Z Z" stroke-miterlimit="10"/></g><g transform="translate(-78,-22) scale(1,1)"><path fill="none" stroke="#450f0f" d="M 88 313 L 163.69482421875 313" stroke-miterlimit="10"/></g><g transform="translate(-78,-22) scale(1,1)"><g><path fill="none" stroke="none"/><text fill="#000000" stroke="none" font-family="Arial" font-size="13px" font-style="normal" font-weight="bold" text-decoration="none" x="92.5" y="306">XMLVisitor</text></g></g><g transform="translate(-78,-22) scale(1,1)"><path fill="none" stroke="#000000" d="M 137 287 L 197 173" stroke-miterlimit="10"/></g><g transform="translate(-78,-22) scale(1,1)"><path fill="#FFFFFF" stroke="none" d="M 194.98369881352565 194.90740809692971 L 197 173 L 180.0833829345694 187.06513658168961"/></g><g transform="translate(-78,-22) scale(1,1)"><path fill="none" stroke="#000000" d="M 194.98369881352565 194.90740809692971 L 197 173 L 180.0833829345694 187.06513658168961 L 194.98369881352565 194.90740809692971" stroke-miterlimit="10"/></g><g transform="translate(-78,-22) scale(1,1)"><rect fill="#C0C0C0" stroke="none" x="455" y="175" width="90.63720703125" height="44" opacity="0.2"/></g><g transform="translate(-78,-22) scale(1,1)"><rect fill="#f6ec9f" stroke="none" x="448" y="168" width="90.63720703125" height="44"/></g><g transform="translate(-78,-22) scale(1,1)"><path fill="none" stroke="#450f0f" d="M 448 168 L 538.63720703125 168 L 538.63720703125 212 L 448 212 L 448 168 Z Z" stroke-miterlimit="10"/></g><g transform="translate(-78,-22) scale(1,1)"><path fill="none" stroke="#450f0f" d="M 448 193 L 538.63720703125 193" stroke-miterlimit="10"/></g><g transform="translate(-78,-22) scale(1,1)"><g><path fill="none" stroke="none"/><text fill="#000000" stroke="none" font-family="Arial" font-size="13px" font-style="normal" font-weight="bold" text-decoration="none" x="452.5" y="186">SimpleShape</text></g></g><g transform="translate(-78,-22) scale(1,1)"><path fill="none" stroke="#000000" d="M 495 167 L 501 77" stroke-miterlimit="10"/></g><g transform="translate(-78,-22) scale(1,1)"><path fill="#FFFFFF" stroke="none" d="M 508.04836652576523 97.8403581859447 L 501 77 L 491.2475891710188 96.72030636229493"/></g><g transform="translate(-78,-22) scale(1,1)"><path fill="none" stroke="#000000" d="M 508.04836652576523 97.8403581859447 L 501 77 L 491.2475891710188 96.72030636229493 L 508.04836652576523 97.8403581859447" stroke-miterlimit="10"/></g><g transform="translate(-78,-22) scale(1,1)"><rect fill="#C0C0C0" stroke="none" x="455" y="279" width="100.7490234375" height="44" opacity="0.2"/></g><g transform="translate(-78,-22) scale(1,1)"><rect fill="#f6ec9f" stroke="none" x="448" y="272" width="100.7490234375" height="44"/></g><g transform="translate(-78,-22) scale(1,1)"><path fill="none" stroke="#450f0f" d="M 448 272 L 548.7490234375 272 L 548.7490234375 316 L 448 316 L 448 272 Z Z" stroke-miterlimit="10"/></g><g transform="translate(-78,-22) scale(1,1)"><path fill="none" stroke="#450f0f" d="M 448 297 L 548.7490234375 297" stroke-miterlimit="10"/></g><g transform="translate(-78,-22) scale(1,1)"><g><path fill="none" stroke="none"/><text fill="#000000" stroke="none" font-family="Arial" font-size="13px" font-style="normal" font-weight="bold" text-decoration="none" x="452.5" y="290">AbstractShape</text></g></g><g transform="translate(-78,-22) scale(1,1)"><rect fill="#C0C0C0" stroke="none" x="471" y="399" width="50.919921875" height="44" opacity="0.2"/></g><g transform="translate(-78,-22) scale(1,1)"><rect fill="#f6ec9f" stroke="none" x="464" y="392" width="50.919921875" height="44"/></g><g transform="translate(-78,-22) scale(1,1)"><path fill="none" stroke="#450f0f" d="M 464 392 L 514.919921875 392 L 514.919921875 436 L 464 436 L 464 392 Z Z" stroke-miterlimit="10"/></g><g transform="translate(-78,-22) scale(1,1)"><path fill="none" stroke="#450f0f" d="M 464 417 L 514.919921875 417" stroke-miterlimit="10"/></g><g transform="translate(-78,-22) scale(1,1)"><g><path fill="none" stroke="none"/><text fill="#000000" stroke="none" font-family="Arial" font-size="13px" font-style="normal" font-weight="bold" text-decoration="none" x="471.39453125" y="410">Circle</text></g></g><g transform="translate(-78,-22) scale(1,1)"><path fill="none" stroke="#000000" d="M 491 391 L 496 317" stroke-miterlimit="10"/></g><g transform="translate(-78,-22) scale(1,1)"><path fill="#FFFFFF" stroke="none" d="M 503.02967279437064 337.8466712067919 L 496 317 L 486.2299067269332 336.71155187791095"/></g><g transform="translate(-78,-22) scale(1,1)"><path fill="none" stroke="#000000" d="M 503.02967279437064 337.8466712067919 L 496 317 L 486.2299067269332 336.71155187791095 L 503.02967279437064 337.8466712067919" stroke-miterlimit="10"/></g><g transform="translate(-78,-22) scale(1,1)"><path fill="none" stroke="#000000" d="M 497 271 L 494 213" stroke-miterlimit="10"/></g><g transform="translate(-78,-22) scale(1,1)"><path fill="#FFFFFF" stroke="none" d="M 503.4577036487464 232.86332906872582 L 494 213 L 486.64211170304543 233.73310106591725"/></g><g transform="translate(-78,-22) scale(1,1)"><path fill="none" stroke="#000000" d="M 503.4577036487464 232.86332906872582 L 494 213 L 486.64211170304543 233.73310106591725 L 503.4577036487464 232.86332906872582" stroke-miterlimit="10"/></g><g transform="translate(-78,-22) scale(1,1)"><rect fill="#C0C0C0" stroke="none" x="399" y="383" width="58.84814453125" height="44" opacity="0.2"/></g><g transform="translate(-78,-22) scale(1,1)"><rect fill="#f6ec9f" stroke="none" x="392" y="376" width="58.84814453125" height="44"/></g><g transform="translate(-78,-22) scale(1,1)"><path fill="none" stroke="#450f0f" d="M 392 376 L 450.84814453125 376 L 450.84814453125 420 L 392 420 L 392 376 Z Z" stroke-miterlimit="10"/></g><g transform="translate(-78,-22) scale(1,1)"><path fill="none" stroke="#450f0f" d="M 392 401 L 450.84814453125 401" stroke-miterlimit="10"/></g><g transform="translate(-78,-22) scale(1,1)"><g><path fill="none" stroke="none"/><text fill="#000000" stroke="none" font-family="Arial" font-size="13px" font-style="normal" font-weight="bold" text-decoration="none" x="396.5" y="394">Triangle</text></g></g><g transform="translate(-78,-22) scale(1,1)"><rect fill="#C0C0C0" stroke="none" x="535" y="399" width="53.07177734375" height="44" opacity="0.2"/></g><g transform="translate(-78,-22) scale(1,1)"><rect fill="#f6ec9f" stroke="none" x="528" y="392" width="53.07177734375" height="44"/></g><g transform="translate(-78,-22) scale(1,1)"><path fill="none" stroke="#450f0f" d="M 528 392 L 581.07177734375 392 L 581.07177734375 436 L 528 436 L 528 392 Z Z" stroke-miterlimit="10"/></g><g transform="translate(-78,-22) scale(1,1)"><path fill="none" stroke="#450f0f" d="M 528 417 L 581.07177734375 417" stroke-miterlimit="10"/></g><g transform="translate(-78,-22) scale(1,1)"><g><path fill="none" stroke="none"/><text fill="#000000" stroke="none" font-family="Arial" font-size="13px" font-style="normal" font-weight="bold" text-decoration="none" x="532.5" y="410">Square</text></g></g><g transform="translate(-78,-22) scale(1,1)"><path fill="none" stroke="#000000" d="M 438 375 L 481 317" stroke-miterlimit="10"/></g><g transform="translate(-78,-22) scale(1,1)"><path fill="#FFFFFF" stroke="none" d="M 475.6581709254978 338.34162276254557 L 481 317 L 462.1319502605589 328.3135626144012"/></g><g transform="translate(-78,-22) scale(1,1)"><path fill="none" stroke="#000000" d="M 475.6581709254978 338.34162276254557 L 481 317 L 462.1319502605589 328.3135626144012 L 475.6581709254978 338.34162276254557" stroke-miterlimit="10"/></g><g transform="translate(-78,-22) scale(1,1)"><path fill="none" stroke="#000000" d="M 543 391 L 509 317" stroke-miterlimit="10"/></g><g transform="translate(-78,-22) scale(1,1)"><path fill="#FFFFFF" stroke="none" d="M 525.1360196112327 331.95422586113756 L 509 317 L 509.8356543746561 338.9841234022673"/></g><g transform="translate(-78,-22) scale(1,1)"><path fill="none" stroke="#000000" d="M 525.1360196112327 331.95422586113756 L 509 317 L 509.8356543746561 338.9841234022673 L 525.1360196112327 331.95422586113756" stroke-miterlimit="10"/></g><g transform="translate(-78,-22) scale(1,1)"><rect fill="#C0C0C0" stroke="none" x="607" y="399" width="50.919921875" height="44" opacity="0.2"/></g><g transform="translate(-78,-22) scale(1,1)"><rect fill="#f6ec9f" stroke="none" x="600" y="392" width="50.919921875" height="44"/></g><g transform="translate(-78,-22) scale(1,1)"><path fill="none" stroke="#450f0f" d="M 600 392 L 650.919921875 392 L 650.919921875 436 L 600 436 L 600 392 Z Z" stroke-miterlimit="10"/></g><g transform="translate(-78,-22) scale(1,1)"><path fill="none" stroke="#450f0f" d="M 600 417 L 650.919921875 417" stroke-miterlimit="10"/></g><g transform="translate(-78,-22) scale(1,1)"><g><path fill="none" stroke="none"/><text fill="#000000" stroke="none" font-family="Arial" font-size="13px" font-style="normal" font-weight="bold" text-decoration="none" x="605.963134765625" y="410">Group</text></g></g><g transform="translate(-78,-22) scale(1,1)"><path fill="none" stroke="#000000" d="M 601 391 L 522 317" stroke-miterlimit="10"/></g><g transform="translate(-78,-22) scale(1,1)"><path fill="#FFFFFF" stroke="none" d="M 542.5894900979645 324.7506707777987 L 522 317 L 531.0784162037181 337.03951993516984"/></g><g transform="translate(-78,-22) scale(1,1)"><path fill="none" stroke="#000000" d="M 542.5894900979645 324.7506707777987 L 522 317 L 531.0784162037181 337.03951993516984 L 542.5894900979645 324.7506707777987" stroke-miterlimit="10"/></g><g transform="translate(-78,-22) scale(1,1)"><path fill="none" stroke="#450f0f" d="M 540 207 L 608 232 L 623 391" stroke-miterlimit="10"/></g><g transform="translate(-78,-22) scale(1,1)"><path fill="#FFFFFF" stroke="none" d="M 617.8545856151393 381.2776180486432 L 623 391 L 626.2364048035403 380.48688038936007 L 620.9337029188953 369.0972509402902"/></g><g transform="translate(-78,-22) scale(1,1)"><path fill="none" stroke="#450f0f" d="M 617.8545856151393 381.2776180486432 L 623 391 L 626.2364048035403 380.48688038936007 L 620.9337029188953 369.0972509402902 L 617.8545856151393 381.2776180486432" stroke-miterlimit="10"/></g></g></svg>